<svg xmlns="http://www.w3.org/2000/svg" data-name="Layer 2" viewBox="0 0 1000 1000"><path fill="#a7d0f9" d="m822.45,472.58l-323.93,124.74c-1.22.47-2.59.47-3.82,0l-2.25-.87v-257.46l2.25-.87c1.23-.47,2.6-.47,3.82,0l323.93,124.73c4.49,1.73,4.49,8.01,0,9.74Z"/><path fill="#a7d0f9" d="m492.45,338.99v257.46l-321.68-123.87c-4.49-1.73-4.49-8.01,0-9.74l321.68-123.85Z" opacity=".75"/><path fill="#a7d0f9" d="m496.61,600.67c-1.01,0-2.03-.19-2.99-.56l-323.93-124.73c-3.21-1.24-5.29-4.25-5.29-7.67s2.08-6.43,5.29-7.67l323.93-124.73c1.93-.74,4.05-.74,5.98,0l323.93,124.73c3.21,1.24,5.29,4.25,5.29,7.67s-2.08,6.43-5.29,7.67l-323.93,124.73c-.96.37-1.98.56-2.99.56Zm-.83-259.75l-323.93,124.73c-1.3.5-1.44,1.61-1.44,2.07s.14,1.57,1.44,2.07l323.93,124.73c.54.21,1.13.21,1.67,0l323.93-124.73c1.3-.5,1.44-1.61,1.44-2.07s-.14-1.57-1.44-2.07l-323.93-124.73c-.54-.21-1.13-.21-1.67,0h0Z"/><path fill="#a7d0f9" d="m831.66,627.9v213.91c0,2.16-1.33,4.09-3.34,4.88l-324.59,126.27c-3.42,1.34-7.11-1.19-7.11-4.86v-357.51c0-4.65,5.6-6.98,8.9-3.72l102.75,101.59c1.5,1.47,3.72,1.9,5.67,1.11l210.52-86.49c3.43-1.41,7.21,1.11,7.21,4.84Z" opacity=".75"/><path fill="#a7d0f9" d="m934.89,569.84c2.66,2.63,1.77,7.12-1.69,8.55l-101.54,41.71-217.73,89.45c-1.94.8-4.17.36-5.66-1.12l-105.92-104.71c-2.69-2.66-1.75-7.21,1.78-8.58l324.37-126.19c1.92-.75,4.1-.3,5.57,1.15l100.82,99.74Z" opacity=".5"/><path fill="#a7d0f9" d="m496.62,610.57v357.51c0,3.67-3.68,6.2-7.11,4.86l-324.59-126.27c-2.01-.79-3.34-2.72-3.34-4.88v-213.91c0-3.72,3.78-6.24,7.21-4.84l210.53,86.49c1.93.79,4.17.36,5.65-1.11l102.75-101.59c3.31-3.26,8.9-.92,8.9,3.72Z" opacity=".5"/><path fill="#a7d0f9" d="m58.36,569.84c-2.66,2.63-1.77,7.12,1.69,8.55l101.54,41.71,217.73,89.45c1.94.8,4.17.36,5.66-1.12l105.92-104.71c2.69-2.66,1.75-7.21-1.78-8.58l-324.37-126.19c-1.92-.75-4.1-.3-5.57,1.15l-100.82,99.74Z" opacity=".25"/><path fill="#a7d0f9" d="m501.84,976.3c-1.63,0-3.25-.49-4.64-1.44-2.24-1.53-3.58-4.07-3.58-6.79v-357.51c0-3.38,1.94-6.29,5.05-7.59,3.12-1.3,6.55-.64,8.95,1.74l102.76,101.58c.64.63,1.58.81,2.41.48l210.52-86.49c2.54-1.04,5.42-.75,7.71.78,2.28,1.53,3.64,4.08,3.64,6.83v213.91c0,3.42-2.06,6.43-5.24,7.67l-324.59,126.27c-.97.38-1.98.56-2.98.56Zm.05-367.97c-.39,0-.71.11-.9.18-.41.17-1.37.71-1.37,2.05v357.51c0,1.06.68,1.64.97,1.84.29.2,1.07.62,2.06.24l324.59-126.27c.86-.33,1.42-1.15,1.42-2.07v-213.91c0-1.07-.69-1.65-.99-1.85-.29-.2-1.09-.62-2.08-.21l-210.52,86.49c-3.06,1.26-6.56.56-8.91-1.76l-102.76-101.58c-.51-.51-1.06-.66-1.52-.66Z"/><path fill="#a7d0f9" d="m611.94,712.94c-2.12,0-4.21-.82-5.78-2.38l-105.93-104.71c-1.99-1.97-2.84-4.78-2.27-7.52.57-2.74,2.46-4.98,5.07-6l324.37-126.19c3.02-1.18,6.46-.46,8.77,1.82l100.82,99.74c1.97,1.95,2.82,4.73,2.28,7.44-.54,2.71-2.38,4.96-4.94,6.01l-319.27,131.16c-1.01.42-2.08.62-3.13.62Zm218.45-241.35c-.27,0-.54.05-.8.15l-324.37,126.19c-1.02.4-1.3,1.27-1.37,1.62-.07.36-.16,1.27.61,2.03l105.93,104.71c.64.63,1.58.81,2.41.48l319.26-131.16c1-.41,1.27-1.27,1.34-1.63.07-.35.15-1.25-.62-2.01l-100.82-99.74c-.42-.42-.99-.64-1.57-.64Z"/><path fill="#a7d0f9" d="m491.4,976.3c-1.01,0-2.02-.18-2.98-.56l-324.59-126.27c-3.18-1.24-5.24-4.25-5.24-7.67v-213.91c0-2.75,1.36-5.3,3.64-6.83,2.28-1.53,5.16-1.82,7.71-.78l210.52,86.49c.83.34,1.77.15,2.41-.48l102.76-101.58c2.4-2.37,5.83-3.04,8.95-1.74,3.12,1.3,5.05,4.21,5.05,7.59v357.51c0,2.72-1.34,5.26-3.58,6.79-1.39.95-3.01,1.44-4.64,1.44Zm-324.59-350.64c-.59,0-1.03.24-1.24.38-.3.2-.99.78-.99,1.85v213.91c0,.92.56,1.74,1.42,2.07l324.59,126.27c.99.38,1.77-.04,2.06-.24s.97-.78.97-1.84v-357.51c0-1.34-.96-1.88-1.37-2.05-.41-.17-1.47-.47-2.42.47l-102.76,101.58c-2.35,2.32-5.85,3.01-8.91,1.76l-210.52-86.49c-.3-.12-.59-.17-.85-.17Z"/><path fill="#a7d0f9" d="m381.3,712.94c-1.05,0-2.11-.2-3.13-.62L58.91,581.16c-2.56-1.05-4.41-3.3-4.94-6.01-.54-2.71.32-5.5,2.28-7.44l100.82-99.74c2.31-2.28,5.75-2.99,8.77-1.82l324.37,126.19c2.61,1.01,4.5,3.26,5.07,6,.57,2.74-.28,5.55-2.27,7.52l-105.92,104.71c-1.57,1.55-3.66,2.38-5.78,2.38ZM60.47,571.97c-.77.76-.69,1.66-.62,2.01.07.35.34,1.22,1.34,1.63l319.26,131.16c.83.34,1.77.15,2.41-.48l105.92-104.71c.78-.77.69-1.68.61-2.03-.07-.36-.35-1.23-1.37-1.62l-324.37-126.19c-.82-.32-1.75-.12-2.37.49l-100.82,99.74Z"/><path fill="#a7d0f9" d="m434.89,900.27c-.37,0-.74-.07-1.11-.21l-258.62-102.63c-1.54-.61-2.29-2.35-1.68-3.89.61-1.54,2.35-2.29,3.89-1.68l258.62,102.63c1.54.61,2.29,2.35,1.68,3.89-.47,1.18-1.6,1.89-2.79,1.89Z"/><path fill="#a7d0f9" d="m525.21,834.59c-1.23,0-2.39-.76-2.82-1.99-.56-1.56.25-3.28,1.81-3.83l290.62-103.99c1.56-.56,3.28.25,3.83,1.81.56,1.56-.25,3.28-1.81,3.83l-290.62,103.99c-.33.12-.67.18-1.01.18Z"/><path fill="#a7d0f9" d="m569.68,848.96c-1.19,0-2.32-.72-2.79-1.9-.61-1.54.14-3.28,1.68-3.89l69.1-27.37c1.54-.61,3.28.14,3.89,1.68s-.14,3.28-1.68,3.89l-69.1,27.37c-.36.14-.74.21-1.1.21Z"/><path fill="#a7d0f9" d="m496.62,610.57v169.02l-335.04-136.89v-14.81c0-3.72,3.78-6.24,7.21-4.84l210.53,86.49c1.93.79,4.17.36,5.65-1.11l102.75-101.59c3.31-3.26,8.9-.92,8.9,3.72Z" opacity=".75"/><path fill="#a7d0f9" d="m831.66,627.9v14.81l-335.04,136.89v-169.02c0-4.65,5.6-6.98,8.9-3.72l102.75,101.59c1.5,1.47,3.72,1.9,5.67,1.11l210.52-86.49c3.43-1.41,7.21,1.11,7.21,4.84Z"/><g><path fill="#a7d0f9" d="m272.67,169.73c2.18,4.14,3.28,10.38,3.28,18.75v28.79c-.06,8.37-1.17,14.51-3.37,18.42-2.18,3.92-5.56,5.88-10.15,5.88s-8.21-2.01-10.39-6.04c-2.18-4.03-3.28-10.38-3.28-19.07v-29.74c.17-7.78,1.29-13.59,3.4-17.43,2.11-3.83,5.48-5.75,10.11-5.75s8.21,2.06,10.39,6.19Z" opacity=".75"/><path fill="#a7d0f9" d="m416.18,101.07H108.45c-17.9,0-32.4,14.51-32.4,32.4v140.72c0,17.9,14.51,32.39,32.4,32.39h208.21l52.28,37.56c6.53,4.68,15.62.02,15.62-8v-29.56h31.63c17.9,0,32.39-14.49,32.39-32.39v-140.72c0-17.9-14.49-32.4-32.39-32.4Zm-113.3,112.12c0,15.73-3.53,27.85-10.59,36.38-7.06,8.53-17.02,12.8-29.86,12.8s-22.97-4.29-30.06-12.87c-7.09-8.59-10.64-20.68-10.64-36.31v-21.26c0-15.73,3.54-27.85,10.6-36.38s17.04-12.79,29.94-12.79,22.9,4.28,29.99,12.87c7.09,8.58,10.63,20.7,10.63,36.38v21.18Z" opacity=".75"/><path fill="#a7d0f9" d="m374.68,349.02c-2.64,0-5.26-.82-7.49-2.42l-51.49-37H108.44c-19.52,0-35.39-15.88-35.39-35.39v-140.73c0-19.52,15.88-35.39,35.39-35.39h307.74c19.52,0,35.39,15.88,35.39,35.39v140.73c0,19.52-15.88,35.39-35.39,35.39h-28.64v26.55c0,4.85-2.68,9.23-6.99,11.44-1.86.95-3.87,1.43-5.88,1.43ZM108.44,104.08c-16.21,0-29.39,13.19-29.39,29.39v140.73c0,16.21,13.19,29.39,29.39,29.39h209.19l53.06,38.12c2.13,1.53,4.79,1.73,7.13.53,2.33-1.2,3.73-3.48,3.73-6.1v-32.55h34.64c16.21,0,29.39-13.19,29.39-29.39v-140.73c0-16.21-13.19-29.39-29.39-29.39H108.44Z"/></g><path fill="#a7d0f9" d="m399.88,481.47s-.08,0-.12,0c-1.66-.06-2.95-1.46-2.88-3.11.15-4.01.44-8.1.86-12.16.17-1.65,1.66-2.85,3.29-2.68,1.65.17,2.85,1.64,2.68,3.29-.41,3.93-.69,7.89-.84,11.77-.06,1.62-1.39,2.89-3,2.89Zm2.46-23.85c-.16,0-.33-.01-.5-.04-1.63-.27-2.74-1.82-2.46-3.45.66-3.97,1.46-7.99,2.37-11.95.37-1.62,1.98-2.62,3.59-2.25,1.62.37,2.62,1.98,2.25,3.59-.88,3.84-1.65,7.74-2.3,11.59-.25,1.47-1.52,2.51-2.96,2.51Zm5.35-23.38c-.28,0-.56-.04-.84-.12-1.59-.46-2.51-2.13-2.04-3.72,1.12-3.86,2.38-7.76,3.73-11.58.55-1.56,2.27-2.38,3.83-1.83,1.56.55,2.38,2.27,1.83,3.83-1.31,3.72-2.53,7.5-3.63,11.26-.38,1.31-1.58,2.16-2.88,2.16Zm7.98-22.62c-.38,0-.78-.07-1.15-.23-1.53-.64-2.25-2.39-1.62-3.92,1.55-3.71,3.22-7.45,4.98-11.1.72-1.49,2.51-2.12,4-1.4,1.49.72,2.12,2.51,1.4,4-1.71,3.55-3.34,7.18-4.85,10.8-.48,1.15-1.6,1.85-2.77,1.85Zm10.42-21.61c-.49,0-.99-.12-1.44-.37-1.45-.8-1.98-2.62-1.18-4.08,1.95-3.54,4.02-7.07,6.16-10.49.88-1.4,2.73-1.83,4.13-.96,1.41.88,1.83,2.73.96,4.13-2.08,3.33-4.1,6.77-5.99,10.21-.55.99-1.57,1.55-2.63,1.55Zm12.71-20.35c-.6,0-1.2-.18-1.72-.55-1.36-.95-1.68-2.83-.73-4.18.42-.59.84-1.18,1.26-1.77,1.96-2.73,4-5.41,6.06-7.97,1.04-1.29,2.93-1.49,4.22-.46,1.29,1.04,1.5,2.93.46,4.22-1.99,2.47-3.96,5.07-5.87,7.71-.41.57-.82,1.15-1.23,1.72-.58.83-1.51,1.27-2.46,1.27Zm15.05-18.66c-.73,0-1.46-.27-2.04-.8-1.21-1.13-1.28-3.03-.15-4.24,2.79-3,5.7-5.9,8.66-8.63,1.22-1.12,3.12-1.05,4.24.17,1.12,1.22,1.05,3.12-.17,4.24-2.84,2.62-5.65,5.42-8.33,8.31-.59.64-1.39.96-2.2.96Zm17.63-16.25c-.89,0-1.77-.39-2.36-1.15-1.02-1.3-.79-3.19.51-4.21,3.21-2.52,6.55-4.92,9.94-7.15,1.39-.91,3.25-.53,4.16.86.91,1.38.53,3.24-.86,4.15-3.25,2.14-6.46,4.45-9.54,6.86-.55.43-1.2.64-1.85.64Zm20.02-13.17c-1.06,0-2.09-.57-2.64-1.57-.79-1.46-.25-3.28,1.2-4.07,3.55-1.93,7.24-3.75,10.98-5.4,1.51-.67,3.29.02,3.96,1.53.67,1.52-.01,3.29-1.53,3.96-3.58,1.59-7.13,3.33-10.54,5.18-.46.25-.95.37-1.43.37Zm170.73-9.61c-1.61,0-2.94-1.27-3-2.89-.06-1.66,1.24-3.05,2.89-3.1,3.71-.13,7.61-.51,11.59-1.11,1.64-.26,3.17.87,3.42,2.51.25,1.64-.87,3.17-2.51,3.42-4.21.64-8.34,1.04-12.29,1.18-.04,0-.07,0-.11,0Zm-148.82-.09c-1.24,0-2.4-.77-2.83-2.01-.55-1.56.27-3.28,1.84-3.82,3.79-1.33,7.72-2.54,11.67-3.61,1.6-.43,3.25.52,3.68,2.12.43,1.6-.52,3.25-2.12,3.68-3.81,1.03-7.6,2.2-11.25,3.48-.33.12-.66.17-.99.17Zm136.84-.34c-.11,0-.23,0-.34-.02-4.3-.49-8.43-1.35-12.29-2.55-1.58-.49-2.46-2.18-1.97-3.76.49-1.58,2.17-2.46,3.76-1.97,3.49,1.09,7.25,1.87,11.18,2.32,1.65.19,2.83,1.67,2.64,3.32-.17,1.53-1.47,2.66-2.98,2.66Zm35.68-3.06c-1.36,0-2.59-.93-2.92-2.31-.38-1.61.61-3.23,2.22-3.61,3.8-.9,7.63-1.94,11.4-3.09,1.58-.49,3.26.41,3.75,1.99.48,1.58-.41,3.26-1.99,3.75-3.88,1.19-7.84,2.26-11.76,3.19-.23.06-.47.08-.7.08Zm-149.38-2.85c-1.41,0-2.66-.99-2.94-2.42-.32-1.63.74-3.2,2.36-3.52,2.81-.55,5.7-1.05,8.59-1.48,1.13-.17,2.26-.33,3.41-.49,1.64-.23,3.16.91,3.39,2.56s-.91,3.16-2.55,3.39c-1.12.16-2.24.32-3.35.48-2.8.42-5.6.9-8.32,1.44-.2.04-.39.06-.58.06Zm91.01-1.34c-.52,0-1.04-.13-1.52-.41-2.18-1.28-4.28-2.72-6.24-4.29-1.32-1.06-2.62-2.21-3.86-3.41-1.19-1.16-1.21-3.06-.06-4.24,1.16-1.19,3.06-1.21,4.24-.06,1.09,1.07,2.25,2.08,3.42,3.02,1.74,1.39,3.6,2.67,5.53,3.8,1.43.84,1.91,2.68,1.07,4.11-.56.95-1.56,1.48-2.59,1.48Zm-67.27-2.17c-1.49,0-2.78-1.11-2.97-2.62-.21-1.64.96-3.15,2.6-3.35,3.66-.46,7.82-.99,11.86-1.56,1.64-.23,3.16.91,3.39,2.56.23,1.64-.91,3.16-2.55,3.39-4.08.57-8.26,1.1-11.94,1.57-.13.02-.25.02-.38.02Zm148.59-.65c-1.21,0-2.36-.74-2.81-1.95-.58-1.55.21-3.28,1.76-3.86,3.67-1.37,7.34-2.88,10.93-4.48,1.51-.68,3.29,0,3.96,1.52s0,3.29-1.52,3.96c-3.7,1.65-7.49,3.21-11.27,4.62-.35.13-.7.19-1.05.19Zm-124.83-2.78c-1.42,0-2.69-1.02-2.95-2.47-.29-1.63.79-3.19,2.42-3.48,4.2-.75,7.98-1.55,11.56-2.43,1.61-.4,3.23.59,3.63,2.2.4,1.61-.59,3.23-2.2,3.63-3.7.91-7.61,1.73-11.93,2.51-.18.03-.36.05-.53.05Zm23.26-5.85c-1.24,0-2.4-.78-2.83-2.01-.54-1.56.28-3.27,1.85-3.82.55-.19,1.09-.38,1.63-.58,0,0,0,0,0,0-2.24-3.4-4.21-7.12-5.88-11.07-.64-1.53.07-3.29,1.6-3.93,1.52-.64,3.29.07,3.93,1.6,1.52,3.61,3.33,7.01,5.36,10.1.23.35.38.73.45,1.11,1.25-.55,2.46-1.11,3.64-1.7,1.48-.74,3.28-.13,4.02,1.35.74,1.48.13,3.28-1.35,4.02-3.53,1.75-7.37,3.35-11.41,4.77-.33.11-.66.17-.99.17Zm123.48-1.13c-1.08,0-2.13-.59-2.66-1.62-.76-1.47-.19-3.28,1.28-4.05,3.48-1.81,6.95-3.75,10.32-5.76,1.42-.85,3.26-.39,4.11,1.03.85,1.42.39,3.26-1.03,4.11-3.47,2.08-7.05,4.07-10.63,5.94-.44.23-.92.34-1.38.34Zm-102.12-9.61c-.94,0-1.86-.44-2.45-1.26-.96-1.35-.64-3.22.71-4.18.95-.68,1.89-1.38,2.79-2.1,2.06-1.63,4-3.43,5.76-5.35,1.12-1.22,3.02-1.3,4.24-.18,1.22,1.12,1.3,3.02.18,4.24-1.98,2.15-4.15,4.17-6.46,6-.98.78-2.01,1.55-3.04,2.28-.53.37-1.13.55-1.73.55Zm122.71-2.7c-.96,0-1.9-.46-2.48-1.31-.93-1.37-.58-3.24.79-4.17,3.25-2.21,6.47-4.55,9.57-6.94,1.31-1.01,3.2-.77,4.21.54,1.01,1.31.77,3.2-.54,4.21-3.2,2.46-6.51,4.87-9.86,7.15-.52.35-1.11.52-1.69.52Zm-150.3-13.6c-1.35,0-2.57-.91-2.91-2.28-.95-3.81-1.75-7.98-2.34-12.08-.23-1.64.91-3.16,2.55-3.39,1.63-.23,3.16.9,3.39,2.55.56,3.9,1.33,7.87,2.22,11.48.4,1.61-.58,3.24-2.19,3.63-.24.06-.49.09-.73.09Zm169.29-1.05c-.84,0-1.67-.35-2.27-1.03-1.09-1.25-.95-3.15.3-4.23,2.96-2.57,5.88-5.27,8.69-8.02,1.18-1.16,3.08-1.14,4.24.05,1.16,1.18,1.14,3.08-.04,4.24-2.89,2.83-5.9,5.6-8.95,8.26-.57.49-1.27.74-1.97.74Zm-125.64-.21c-.5,0-1-.12-1.47-.39-1.44-.81-1.95-2.64-1.14-4.09,1.85-3.29,3.32-6.79,4.36-10.4.46-1.59,2.12-2.51,3.71-2.05,1.59.46,2.51,2.12,2.05,3.71-1.17,4.06-2.82,7.99-4.9,11.68-.55.98-1.57,1.53-2.62,1.53Zm142.78-16.57c-.72,0-1.44-.26-2.01-.78-1.23-1.11-1.32-3.01-.21-4.24,2.64-2.91,5.22-5.94,7.67-8.99,1.04-1.29,2.92-1.5,4.22-.46,1.29,1.04,1.5,2.92.46,4.22-2.52,3.15-5.18,6.26-7.9,9.26-.59.65-1.41.99-2.22.99Zm-189.79-5.9c-1.61,0-2.94-1.27-3-2.9-.04-1.12-.06-2.25-.06-3.38,0-3.17.16-6.21.49-9.05.19-1.65,1.68-2.83,3.32-2.64,1.65.19,2.83,1.67,2.64,3.32-.3,2.62-.45,5.43-.45,8.37,0,1.06.02,2.11.06,3.17.06,1.66-1.24,3.05-2.89,3.1-.04,0-.07,0-.11,0Zm53.58-.39s-.09,0-.14,0c-1.66-.07-2.94-1.48-2.86-3.13.03-.71.05-1.43.05-2.15,0-2.56-.21-5.15-.62-7.69-.07-.44-.15-.89-.25-1.34-.35-1.62.69-3.21,2.31-3.56,1.62-.35,3.21.69,3.56,2.31.12.55.22,1.09.31,1.63.46,2.86.7,5.77.7,8.65,0,.81-.02,1.62-.05,2.42-.07,1.61-1.4,2.87-3,2.87Zm151.21-12.43c-.6,0-1.2-.18-1.73-.55-1.35-.96-1.68-2.83-.72-4.18,2.27-3.22,4.46-6.53,6.51-9.85.87-1.41,2.72-1.85,4.13-.98,1.41.87,1.85,2.72.98,4.13-2.11,3.43-4.37,6.85-6.71,10.17-.58.83-1.51,1.27-2.45,1.27Zm-156.4-10.67c-1.05,0-2.07-.55-2.62-1.54-1.86-3.34-4.18-6.39-6.7-8.84-1.19-1.15-1.21-3.05-.06-4.24,1.16-1.19,3.06-1.21,4.24-.06,2.93,2.85,5.61,6.38,7.76,10.22.81,1.45.29,3.27-1.16,4.08-.46.26-.97.38-1.46.38Zm-45.36-.18c-.34,0-.69-.06-1.03-.19-1.56-.57-2.35-2.29-1.78-3.85,1.65-4.5,3.94-8.28,6.8-11.25,1.15-1.19,3.05-1.23,4.24-.08,1.19,1.15,1.23,3.05.08,4.24-2.28,2.36-4.13,5.44-5.49,9.15-.45,1.21-1.59,1.97-2.82,1.97Zm214.33-9.56c-.47,0-.96-.11-1.41-.35-1.46-.78-2.02-2.59-1.24-4.06.24-.45.48-.9.71-1.35.77-1.47,2.58-2.04,4.05-1.27,1.47.77,2.04,2.58,1.27,4.05-.24.47-.49.93-.73,1.4-.54,1.01-1.58,1.59-2.65,1.59Zm-186.21-6.25c-.33,0-.67-.06-1-.17-3.32-1.17-6.69-1.3-10-.39-1.6.44-3.25-.5-3.69-2.09-.44-1.6.5-3.25,2.09-3.69,4.48-1.24,9.12-1.06,13.59.52,1.56.55,2.38,2.27,1.83,3.83-.43,1.23-1.59,2-2.83,2Z"/><g><ellipse cx="855.52" cy="114.28" fill="#a7d0f9" rx="24.18" ry="50.8" transform="rotate(-40.47 855.573 114.274)"/><ellipse cx="863.33" cy="158.97" fill="#a7d0f9" opacity=".5" rx="50.8" ry="32.43" transform="rotate(-35.07 863.295 158.97)"/><path fill="#a7d0f9" d="m845.14,201.33c-11.04,0-20.46-3.79-25.84-11.45-11.23-15.99-.6-42.87,23.68-59.91h0c24.28-17.04,53.17-17.9,64.39-1.91,11.23,15.99.6,42.87-23.68,59.91-12.65,8.88-26.55,13.37-38.55,13.37Zm1.28-66.45c-21.57,15.14-31.54,38.27-22.21,51.55,9.33,13.28,34.46,11.77,56.03-3.38,21.57-15.14,31.54-38.27,22.21-51.55-9.32-13.28-34.46-11.77-56.03,3.38h0Z"/><ellipse cx="844.81" cy="137.03" fill="#a7d0f9" rx="24.18" ry="50.8" transform="rotate(-74.51 844.805 137.04)"/><path fill="#a7d0f9" d="m863.77,167.02c-8.02,0-16.96-1.22-26.22-3.79-13.5-3.74-25.53-9.79-33.89-17.04-8.95-7.77-12.75-16.12-10.7-23.52,2.05-7.4,9.61-12.61,21.28-14.66,10.9-1.91,24.33-.91,37.83,2.83h0c29.07,8.06,48.66,25.88,44.59,40.56-2.77,10.01-15.72,15.61-32.89,15.61Zm-37.93-53.96c-3.73,0-7.28.29-10.56.86-9.13,1.6-15.15,5.38-16.53,10.35-1.38,4.97,1.85,11.31,8.85,17.38,7.7,6.68,18.9,12.29,31.56,15.79,27.55,7.64,48.99,2.21,51.72-7.64,2.73-9.86-12.85-25.54-40.41-33.18-8.51-2.36-16.96-3.57-24.63-3.57Z"/></g><g><path fill="#a7d0f9" d="m214.59,396.72c-.49,0-.98-.12-1.44-.37l-79.82-43.79c-1.45-.8-1.98-2.62-1.19-4.07.79-1.45,2.62-1.98,4.07-1.19l79.82,43.79c1.45.8,1.98,2.62,1.19,4.07-.54.99-1.57,1.56-2.63,1.56Z"/><path fill="#a7d0f9" d="m236.94,382.58c-.98,0-1.93-.48-2.51-1.35l-20.07-30.56c-.91-1.39-.52-3.25.86-4.15,1.38-.91,3.25-.52,4.15.86l20.07,30.56c.91,1.39.52,3.25-.86,4.15-.51.33-1.08.49-1.64.49Z"/><path fill="#a7d0f9" d="m745.17,382.58c-.62,0-1.25-.19-1.79-.59-1.33-.99-1.61-2.87-.62-4.2l99.65-133.98c.99-1.33,2.87-1.6,4.2-.62,1.33.99,1.61,2.87.62,4.2l-99.65,133.98c-.59.79-1.49,1.21-2.41,1.21Z"/><path fill="#a7d0f9" d="m760.56,390.22c-.97,0-1.92-.47-2.5-1.34-.92-1.38-.54-3.24.83-4.16l34.43-22.92c1.38-.92,3.24-.54,4.16.83.92,1.38.54,3.24-.83,4.16l-34.43,22.92c-.51.34-1.09.5-1.66.5Z"/><path fill="#a7d0f9" d="m782.11,411.77c-1.45,0-2.72-1.05-2.96-2.52-.26-1.64.85-3.18,2.48-3.44l93.39-15.05c1.64-.26,3.18.85,3.44,2.48.26,1.64-.85,3.18-2.48,3.44l-93.39,15.05c-.16.03-.32.04-.48.04Z"/></g><g><circle cx="101.31" cy="769.38" r="25.26" fill="#a7d0f9" opacity=".5"/><circle cx="213.05" cy="900.86" r="14.88" fill="#a7d0f9"/><circle cx="903.26" cy="676.72" r="39.93" fill="#a7d0f9"/><circle cx="682.09" cy="844.06" r="17.95" fill="#a7d0f9"/><circle cx="663.12" cy="953.08" r="20.23" fill="#a7d0f9" opacity=".5"/></g><g opacity=".25"><path fill="#a7d0f9" d="m213.05,885.98c7.49,0,13.68,5.55,14.71,12.75h60.96l-125.13-48.68c-3.43-1.34-5.64-4.57-5.64-8.25v-117.49h-70.75c-48.16,0-87.21,39.05-87.21,87.21,0,24.08,9.76,45.88,25.54,61.66,15.79,15.79,37.58,25.54,61.66,25.54h111.13c1.03-7.21,7.22-12.75,14.71-12.75Zm-111.74-91.34c-13.95,0-25.26-11.31-25.26-25.26s11.31-25.26,25.26-25.26,25.26,11.31,25.26,25.26-11.31,25.26-25.26,25.26Z"/><path fill="#a7d0f9" d="m912.79,724.32h-77.51v117.49c0,3.68-2.21,6.91-5.64,8.25l-125.13,48.68h208.27c48.16,0,87.21-39.05,87.21-87.21,0-24.08-9.76-45.88-25.54-61.66s-37.58-25.54-61.66-25.54Z"/><path fill="#a7d0f9" d="m497.27,601.27c-.22.02-.44.03-.66.03s-.43-.01-.64-.03c-.07.52-.2,1.04-.36,1.54.35.19.69.41,1.01.64.32-.23.66-.45,1.01-.64-.17-.5-.29-1.01-.36-1.54Z"/><path fill="#a7d0f9" d="m262.43,262.37c12.85,0,22.8-4.27,29.86-12.8s10.59-20.65,10.59-36.38v-21.18c0-15.68-3.54-27.8-10.63-36.38-7.09-8.59-17.09-12.87-29.99-12.87s-22.87,4.26-29.94,12.79c-7.06,8.53-10.6,20.65-10.6,36.38v21.26c0,15.63,3.55,27.72,10.64,36.31,7.09,8.58,17.1,12.87,30.06,12.87Zm-13.68-75.64c.17-7.78,1.29-13.59,3.4-17.43,2.11-3.83,5.48-5.75,10.11-5.75s8.21,2.06,10.39,6.19c2.18,4.14,3.28,10.38,3.28,18.75v28.79c-.06,8.37-1.17,14.51-3.37,18.42-2.18,3.92-5.56,5.88-10.15,5.88s-8.21-2.01-10.39-6.04c-2.18-4.03-3.28-10.38-3.28-19.07v-29.74Z"/><path fill="#a7d0f9" d="m912.79,375.51h-128.1l-22.12,14.73c-.62.41-1.32.61-2.01.61-1.17,0-2.32-.57-3.02-1.62-1.11-1.67-.66-3.92,1.01-5.03l13.05-8.69h-18.89l-4.63,6.23c-.71.96-1.81,1.46-2.91,1.46-.75,0-1.51-.23-2.16-.72-1.61-1.2-1.94-3.47-.75-5.08l1.41-1.9h-116.49c-24.08,0-45.88-9.76-61.66-25.54-11.95-11.95-20.43-27.35-23.86-44.57-4.04.69-8.04,1.49-11.9,2.43-.29.07-.58.1-.86.1-1.64,0-3.12-1.11-3.52-2.77-.47-1.95.72-3.91,2.67-4.38,4.06-.99,8.25-1.84,12.5-2.57-.37-3.25-.58-6.55-.58-9.9,0-41.77,29.39-76.67,68.61-85.2-.93-1.72-.34-3.87,1.36-4.86,1.3-.76,2.69-1.41,4.13-1.95,4.02-1.5,8.2-1.88,12.29-1.13,1.97.36,3.28,2.25,2.92,4.22-.12.66-.42,1.24-.83,1.71h186.06c.83-.32,1.76-.34,2.63,0h18.85c-7.38-1.63-13.31-5.32-17.2-10.86-5.71-8.14-6.21-19.07-1.38-30.78.38-.92.8-1.84,1.24-2.76-18.55-9.28-29.48-22.66-26.28-34.2,2.64-9.54,14.22-15.19,29.84-15.96-5.81-13.45-6.14-25.37.35-30.9,10.16-8.67,33.16,1.61,51.37,22.95,4.93,5.78,9,11.78,12.12,17.63,9.28.92,17.1,4.72,21.84,11.48,5.71,8.14,6.21,19.07,1.38,30.78-4.59,11.16-13.55,21.81-25.21,30-9.21,6.47-19.3,10.81-29.07,12.62h57.81c48.16,0,87.21-39.04,87.21-87.19,0-24.08-9.76-45.88-25.54-61.66-15.79-15.79-37.58-25.54-61.66-25.54H87.21C39.05,26.69,0,65.74,0,113.9c0,24.08,9.76,45.88,25.54,61.65,12.48,12.48,28.72,21.17,46.87,24.27v-66.35c0-19.86,16.16-36.02,36.02-36.02h307.74c19.86,0,36.02,16.16,36.02,36.02v140.73c0,19.86-16.16,36.02-36.02,36.02h-28.01v25.93c0,5.08-2.81,9.68-7.33,12-1.95,1-4.06,1.5-6.16,1.5-2.77,0-5.51-.86-7.86-2.54l-51.33-36.88h-129.29c-4.88,18.86-15.93,35.22-30.85,46.86l60.98,33.45c1.76.96,2.4,3.17,1.43,4.93-.66,1.2-1.9,1.88-3.18,1.88-.59,0-1.19-.14-1.74-.45l-64.08-35.15c-13.57,8.7-29.68,13.76-46.99,13.76h-14.57c-48.16,0-87.21,39.04-87.21,87.19,0,24.08,9.76,45.89,25.54,61.66,12.91,12.91,29.85,21.78,48.76,24.59l82.32-81.43c2.01-1.99,4.83-2.85,7.55-2.43.78-2.54,2.69-4.62,5.29-5.63l283.37-109.11c-.25-.14-.5-.31-.72-.51-1.46-1.37-1.53-3.67-.15-5.13,3.42-3.62,7-7.1,10.67-10.32,1.5-1.32,3.8-1.18,5.12.33,1.32,1.5,1.18,3.8-.33,5.12-2.93,2.58-5.81,5.34-8.6,8.21l34.56-13.31c2.08-.8,4.36-.8,6.44,0l323.93,124.73c2.6,1,4.51,3.09,5.29,5.63,2.73-.42,5.55.44,7.57,2.43l82.99,82.1c44.97-3.48,80.39-41.04,80.39-86.92,0-24.08-9.76-45.88-25.54-61.65-15.79-15.79-37.58-25.54-61.66-25.54Zm-673.86,7.1c-.61.4-1.3.6-1.99.6-1.18,0-2.34-.58-3.04-1.64l-20.07-30.56c-1.1-1.67-.63-3.92,1.04-5.02,1.67-1.1,3.92-.63,5.02,1.04l20.07,30.56c1.1,1.67.63,3.92-1.04,5.02Zm251.44-59.24c-4.06,2.34-8.06,4.91-11.88,7.65-.64.46-1.38.68-2.11.68-1.13,0-2.24-.52-2.95-1.51-1.17-1.63-.8-3.89.83-5.06,4.02-2.89,8.22-5.6,12.5-8.05,1.74-1,3.95-.4,4.95,1.34,1,1.74.4,3.95-1.34,4.95Zm25.77-11.6c-4.5,1.53-8.94,3.27-13.18,5.17-.48.22-.99.32-1.48.32-1.39,0-2.71-.8-3.31-2.14-.82-1.83,0-3.97,1.82-4.8,4.45-2,9.1-3.82,13.82-5.43,1.9-.64,3.96.37,4.6,2.27s-.37,3.96-2.27,4.6Zm359.94,85.53l-93.39,15.05c-.2.03-.39.05-.58.05-1.75,0-3.29-1.27-3.58-3.05-.32-1.98,1.03-3.84,3-4.16l93.39-15.05c1.98-.32,3.84,1.02,4.16,3,.32,1.98-1.03,3.84-3,4.16Z"/></g></svg>